<?xml version="1.0" encoding="iso-8859-1"?>
<!-- Generator: Adobe Illustrator 19.0.0, SVG Export Plug-In . SVG Version: 6.00 Build 0)  -->
<svg version="1.1" id="Capa_1" xmlns="http://www.w3.org/2000/svg" xmlns:xlink="http://www.w3.org/1999/xlink" x="0px" y="0px"
	 viewBox="0 0 512 512" style="enable-background:new 0 0 512 512;" xml:space="preserve">
<rect style="fill:#FFE733;" width="512" height="512"/>
<rect x="256" style="fill:#FFBC36;" width="256" height="512"/>
<polygon style="fill:#DE78F0;" points="115.75,157.478 115.75,187.478 196.304,187.478 196.304,241 115.75,241 115.75,271 
	196.304,271 196.304,324.522 115.75,324.522 115.75,354.522 226.304,354.522 226.304,157.478 "/>
<path style="fill:#BF4CD9;" d="M349.812,354.522h-87.474V157.478h87.474c33.877,0,61.438,27.561,61.438,61.438v74.168
	C411.25,326.961,383.689,354.522,349.812,354.522z M292.338,324.522h57.474c17.334,0,31.438-14.103,31.438-31.438v-74.168
	c0-17.335-14.103-31.438-31.438-31.438h-57.474V324.522z"/>
<g>
</g>
<g>
</g>
<g>
</g>
<g>
</g>
<g>
</g>
<g>
</g>
<g>
</g>
<g>
</g>
<g>
</g>
<g>
</g>
<g>
</g>
<g>
</g>
<g>
</g>
<g>
</g>
<g>
</g>
</svg>
