<svg width="9" height="9" viewBox="0 0 9 9" fill="none" xmlns="http://www.w3.org/2000/svg">
<path d="M4.47888 7.56027C4.78292 7.24222 5.04462 6.96789 5.30632 6.69755C6.20304 5.77121 7.09976 4.8409 8.00033 3.91456C8.26203 3.64422 8.60456 3.62831 8.83547 3.86685C9.06639 4.10937 9.05484 4.44731 8.79699 4.71368C7.46923 6.08927 6.14147 7.46088 4.80986 8.83249C4.59049 9.05911 4.39806 9.05513 4.17869 8.82454C2.85093 7.45293 1.52317 6.08132 0.195409 4.7097C-0.0585977 4.44731 -0.0624463 4.09744 0.172317 3.86288C0.403232 3.62831 0.741907 3.64422 0.992065 3.90661C2.09661 5.04366 3.1973 6.18071 4.298 7.32173C4.35957 7.38534 4.40576 7.46486 4.47888 7.56027Z" fill="white"/>
<path d="M4.47844 3.86255C4.78248 3.54449 5.04419 3.27017 5.30589 2.99982C6.20261 2.07349 7.09933 1.14318 7.9999 0.216848C8.2616 -0.0534979 8.60412 -0.0694006 8.83504 0.16914C9.06595 0.411657 9.05441 0.74959 8.79655 1.01596C7.46879 2.39155 6.14103 3.76316 4.80942 5.13476C4.59005 5.36138 4.39762 5.3574 4.17826 5.12681C2.85049 3.7552 1.52273 2.38359 0.194974 1.01198C-0.0590327 0.74959 -0.0628813 0.39973 0.171882 0.165165C0.402797 -0.0694006 0.741472 -0.0534978 0.99163 0.208897C2.09232 1.34197 3.19302 2.48299 4.29371 3.62003C4.35914 3.68762 4.40532 3.76713 4.47844 3.86255Z" fill="white"/>
</svg>
