<svg width="16" height="11" viewBox="0 0 16 11" fill="none" xmlns="http://www.w3.org/2000/svg">
<path d="M13.752 1.2072C13.5259 1.39389 13.3461 1.54018 13.1682 1.68882C11.4803 3.09799 9.79234 4.50756 8.10477 5.91712C7.53965 6.38933 6.98038 6.39286 6.41759 5.92301C4.59965 4.40598 2.78209 2.88777 0.964142 1.37035C0.915103 1.32957 0.862561 1.29231 0.783943 1.23191C0.783943 3.74395 0.783943 6.22618 0.783943 8.74175C0.850496 8.69115 0.905762 8.65311 0.957136 8.61036C2.16054 7.60515 3.36277 6.59916 4.56773 5.59591C4.65063 5.52689 4.74521 5.4555 4.84562 5.42766C5.0157 5.38099 5.1671 5.4355 5.26012 5.6014C5.35236 5.76613 5.32823 5.94222 5.17372 6.07832C4.91996 6.30187 4.65686 6.51523 4.39726 6.73211C3.4737 7.50357 2.54974 8.27503 1.62578 9.04609C1.5818 9.08257 1.53354 9.11394 1.48723 9.14767C1.49618 9.16375 1.50513 9.17944 1.51369 9.19552C4.20461 9.19552 6.89592 9.19552 9.61486 9.19552C9.58801 9.12492 9.56894 9.06688 9.54403 9.01119C8.62357 6.95606 9.86084 4.59933 12.0625 4.21537C13.8692 3.90043 15.6439 5.16842 15.951 6.9941C16.2713 8.89902 14.9862 10.7027 13.104 10.9639C12.0727 11.1071 11.1534 10.8231 10.3699 10.1262C10.2543 10.0235 10.1414 9.98306 9.98888 9.98306C7.09597 9.98698 4.20305 9.9858 1.31014 9.98619C1.04704 9.98619 0.792894 9.94815 0.565992 9.80265C0.17796 9.5536 0.00165345 9.19709 0.00282104 8.73273C0.00749143 6.71956 0.00437784 4.7064 0.00437784 2.69324C0.00437784 2.20966 0.018389 1.72529 0.00087505 1.2425C-0.0271473 0.485944 0.622815 -0.00234473 1.23853 8.46781e-06C5.2535 0.0145199 9.26848 0.0145199 13.2835 0.000400667C13.9007 -0.00195253 14.5402 0.498886 14.516 1.24838C14.4923 1.99277 14.5118 2.73835 14.5106 3.48353C14.5102 3.76552 14.3713 3.93965 14.1467 3.94789C13.9237 3.95573 13.7544 3.76081 13.7536 3.48235C13.7509 2.81561 13.7524 2.14887 13.7524 1.48213C13.752 1.41153 13.752 1.34094 13.752 1.2072ZM13.0433 0.786761C9.16884 0.786761 5.34185 0.786761 1.46426 0.786761C1.56584 0.875398 1.63084 0.934228 1.69817 0.990705C3.42505 2.43321 5.15231 3.87533 6.87918 5.31784C7.18432 5.57277 7.32326 5.57552 7.62761 5.32176C9.37512 3.86357 11.1226 2.40458 12.8693 0.945602C12.9184 0.905205 12.9635 0.860102 13.0433 0.786761ZM15.2442 7.59142C15.2559 6.14538 14.0743 4.94408 12.6312 4.93427C11.2125 4.92486 10.0076 6.1093 9.99316 7.5275C9.97798 9.01785 11.1573 10.2352 12.6168 10.236C14.0576 10.2372 15.2322 9.05433 15.2442 7.59142Z" fill="white"/>
<path d="M12.9492 7.11922C12.8242 7.00862 12.6938 6.90351 12.5759 6.78585C12.3848 6.59564 12.3727 6.36032 12.535 6.19991C12.6958 6.04107 12.9157 6.05205 13.1021 6.23795C13.4473 6.5823 13.7906 6.92862 14.1304 7.27807C14.3347 7.48828 14.3335 7.68282 14.128 7.89303C13.7871 8.2417 13.4438 8.58762 13.0978 8.93119C12.9052 9.12258 12.6973 9.13199 12.5327 8.96766C12.3755 8.81078 12.3871 8.58095 12.5635 8.39505C12.6752 8.277 12.7892 8.1613 12.9013 8.04403C12.9091 8.0358 12.9091 8.02011 12.9223 7.97736C12.8503 7.97108 12.7849 7.96089 12.7195 7.96089C12.3245 7.95932 11.9295 7.96089 11.5344 7.95932C11.2316 7.95814 11.067 7.82675 11.065 7.58908C11.0631 7.34905 11.2433 7.19845 11.5445 7.19609C11.9267 7.19335 12.3085 7.19531 12.6907 7.19531C12.7608 7.19531 12.8308 7.19531 12.9009 7.19531C12.9172 7.16982 12.9332 7.14433 12.9492 7.11922Z" fill="white"/>
</svg>
