<svg width="8" height="16" viewBox="0 0 8 16" fill="none" xmlns="http://www.w3.org/2000/svg">
<path fill-rule="evenodd" clip-rule="evenodd" d="M7.80104 5.05331C7.61329 4.79246 7.31733 4.6392 7.00353 4.6392H5.48358V3.61944L6.47418 3.61888C7.02261 3.61888 7.46834 3.15929 7.47066 2.59025L7.47743 1.09278C7.4785 1.07356 7.47886 1.05507 7.47886 1.03584C7.47886 0.46514 7.03366 0.00258822 6.48327 0.00258822H5.20741C5.17924 0.00110924 5.13787 0 5.08635 0C4.72816 0 4.028 0.0615627 3.36475 0.475863C2.73698 0.867423 1.98869 1.66959 1.98869 3.26393V4.63938H0.996487C0.731722 4.63938 0.477833 4.74883 0.290447 4.94313C0.103596 5.1378 -0.00106164 5.40124 8.12094e-06 5.67615L0.00393045 7.22409C0.00589167 7.79313 0.451624 8.25383 1.00041 8.25383H1.98762L1.98869 14.9667C1.98869 15.5374 2.43495 16 2.98517 16H4.47837C5.02876 16 5.47485 15.5373 5.47485 14.9667V8.25364H6.65194C7.0941 8.25364 7.4835 7.95138 7.60812 7.51157L7.95936 5.96363C8.04833 5.65119 7.98931 5.31361 7.80104 5.05331ZM6.6523 7.22021H4.47873V14.9664H2.98552L2.98445 7.22021H1.00077L0.996844 5.67227H2.98552C2.98552 5.67227 2.98552 3.77714 2.98552 3.26356C2.98552 1.16359 4.66754 1.03307 5.08653 1.03307C5.1459 1.03307 5.17995 1.03566 5.17995 1.03566H6.48096L6.47418 2.58563H5.18191C4.47052 2.58563 4.48711 3.21531 4.48711 3.21531V5.67245H7.00371L6.6523 7.22021Z" fill="white"/>
</svg>
