<svg width="13" height="13" viewBox="0 0 13 13" fill="none" xmlns="http://www.w3.org/2000/svg">
<path d="M12.9983 6.50979C12.9983 7.60236 13.0031 8.69494 12.9964 9.78703C12.9921 10.4839 12.7781 11.1146 12.3598 11.6748C11.9616 12.2082 11.4517 12.5914 10.8252 12.8149C10.4932 12.9333 10.1492 12.9967 9.79566 12.9971C8.31858 12.9981 6.84149 12.9976 5.3644 12.9976C4.64145 12.9976 3.9185 13.0043 3.19602 12.9952C2.51001 12.9866 1.88732 12.777 1.33467 12.3664C0.827597 11.9904 0.453407 11.5127 0.222178 10.9237C0.0796981 10.5602 0.00246158 10.1832 0.00198185 9.79327C6.29321e-05 7.59948 -0.00185599 5.40474 0.00342104 3.21C0.00533996 2.51359 0.222658 1.88241 0.641462 1.32269C1.01709 0.821964 1.4925 0.451217 2.07633 0.223397C2.44429 0.0795105 2.82615 0.00421008 3.22193 0.00421008C4.96479 0.00373046 6.70812 0.00373046 8.45098 0.00373046C8.92256 0.00373046 9.39413 -0.0068212 9.86522 0.00756743C10.5268 0.0272319 11.1284 0.236347 11.6623 0.632034C12.1991 1.02964 12.5863 1.53948 12.8127 2.16778C12.9331 2.5016 12.9974 2.84788 12.9979 3.20376C12.9993 4.30545 12.9983 5.40762 12.9983 6.50979ZM6.50712 0.931797C5.58124 0.931797 4.65536 0.929878 3.72948 0.933236C3.46179 0.934195 3.19266 0.936113 2.92689 0.962013C2.47115 1.00662 2.07154 1.19655 1.72949 1.49631C1.19363 1.9649 0.931698 2.56443 0.930739 3.27426C0.92834 5.26085 0.92882 7.24792 0.931218 9.23451C0.931698 9.51413 0.935536 9.79519 0.959522 10.0734C0.990225 10.4312 1.12263 10.7592 1.327 11.0523C1.79425 11.7213 2.44477 12.0643 3.25887 12.0672C5.23391 12.0743 7.20896 12.0705 9.18401 12.0681C9.48096 12.0676 9.77839 12.0643 10.0739 12.0398C10.4318 12.0106 10.7599 11.8763 11.0526 11.6724C11.7227 11.2058 12.0648 10.5544 12.0677 9.74147C12.0749 7.70644 12.071 5.67141 12.0686 3.63638C12.0681 3.39753 12.0624 3.1582 12.0398 2.92078C12.0058 2.56347 11.8743 2.23541 11.669 1.94332C11.1979 1.27281 10.5436 0.938032 9.72706 0.933236C8.65391 0.927 7.58027 0.931797 6.50712 0.931797Z" fill="white"/>
<path d="M6.5028 3.25172C8.2802 3.2498 9.72994 4.71121 9.75009 6.46182C9.77072 8.27335 8.27636 9.7549 6.4932 9.75058C4.72108 9.74627 3.25071 8.2839 3.25023 6.5141C3.24975 4.71313 4.70477 3.25412 6.5028 3.25172ZM4.17899 6.49444C4.18379 7.79085 5.20609 8.81436 6.48985 8.81916C7.78704 8.82396 8.81318 7.79565 8.81941 6.50691C8.82565 5.2244 7.78656 4.18267 6.50952 4.18075C5.2224 4.17835 4.18043 5.21289 4.17899 6.49444Z" fill="white"/>
<path d="M11.1418 2.79273C11.1403 3.30112 10.7167 3.71791 10.2034 3.716C9.70116 3.71408 9.28235 3.28721 9.28523 2.77978C9.28763 2.27617 9.71267 1.85842 10.2207 1.85986C10.7239 1.8613 11.1432 2.28529 11.1418 2.79273Z" fill="white"/>
</svg>
