<svg width="15" height="16" viewBox="0 0 15 16" fill="none" xmlns="http://www.w3.org/2000/svg">
<path d="M8.42351 8.94257L8.42366 8.94264L8.42509 8.93887C8.49106 8.76594 8.64175 8.57997 8.84621 8.43703C9.05017 8.29446 9.30387 8.19737 9.57297 8.19737C9.96598 8.19737 10.2675 8.32242 10.4713 8.54921C10.6758 8.77678 10.7878 9.11337 10.7878 9.54737V14.6316C10.7878 14.7528 10.8265 14.858 10.8983 14.9332C10.9702 15.0086 11.0717 15.05 11.1892 15.05H13.6486C13.7662 15.05 13.8676 15.0086 13.9396 14.9332C14.0113 14.858 14.05 14.7528 14.05 14.6316V9.17895C14.05 7.91783 13.7139 6.90997 13.0975 6.21677C12.4804 5.52283 11.5875 5.15 10.4865 5.15C9.40595 5.15 8.58065 5.55355 8.04189 6.01062V5.9C8.04189 5.7788 8.00321 5.67363 7.93145 5.59839C7.8595 5.52293 7.75804 5.48158 7.64054 5.48158H5.53243C5.44903 5.48158 5.33038 5.52363 5.2503 5.6076C5.17218 5.68951 5.13108 5.77522 5.13108 5.9H5.13101L5.13115 5.90265C5.1662 6.5642 5.16622 7.33643 5.16622 8.22105V14.6316C5.16622 14.7564 5.20732 14.8421 5.28544 14.924C5.32342 14.9638 5.36348 14.9959 5.4103 15.0177C5.45741 15.0396 5.50872 15.05 5.56757 15.05H8.02703C8.27077 15.05 8.42838 14.8378 8.42838 14.6316V9.54737V9.54694V9.54651V9.54607V9.54564V9.54521V9.54478V9.54435V9.54391V9.54348V9.54305V9.54262V9.54219V9.54176V9.54132V9.54089V9.54046V9.54003V9.5396V9.53917V9.53873V9.5383V9.53787V9.53744V9.53701V9.53658V9.53614V9.53571V9.53528V9.53485V9.53442V9.53399V9.53355V9.53312V9.53269V9.53226V9.53183V9.53139V9.53096V9.53053V9.5301V9.52967V9.52924V9.5288V9.52837V9.52794V9.52751V9.52708V9.52665V9.52621V9.52578V9.52535V9.52492V9.52449V9.52405V9.52362V9.52319V9.52276V9.52233V9.5219V9.52146V9.52103V9.5206V9.52017V9.51974V9.51931V9.51887V9.51844V9.51801V9.51758V9.51715V9.51672V9.51628V9.51585V9.51542V9.51499V9.51456V9.51412V9.51369V9.51326V9.51283V9.5124V9.51197V9.51153V9.5111V9.51067V9.51024V9.50981V9.50938V9.50894V9.50851V9.50808V9.50765V9.50722V9.50678V9.50635V9.50592V9.50549V9.50506V9.50463V9.50419V9.50376V9.50333V9.5029V9.50247V9.50204V9.5016V9.50117V9.50074V9.50031V9.49988V9.49944V9.49901V9.49858V9.49815V9.49772V9.49729V9.49685V9.49642V9.49599V9.49556V9.49513V9.4947V9.49426V9.49383V9.4934V9.49297V9.49254V9.49211V9.49167V9.49124V9.49081V9.49038V9.48995V9.48952V9.48908V9.48865V9.48822V9.48779V9.48736V9.48692V9.48649V9.48606V9.48563V9.4852V9.48477V9.48433V9.4839V9.48347V9.48304V9.48261V9.48217V9.48174V9.48131V9.48088V9.48045V9.48002V9.47958V9.47915V9.47872V9.47829V9.47786V9.47743V9.47699V9.47656V9.47613V9.4757V9.47527V9.47484V9.4744V9.47397V9.47354V9.47311V9.47268V9.47225V9.47181V9.47138V9.47095V9.47052V9.47009V9.46966V9.46922V9.46879V9.46836V9.46793V9.4675V9.46706V9.46663V9.4662V9.46577V9.46534V9.46491V9.46447V9.46404V9.46361V9.46318V9.46275V9.46231V9.46188V9.46145V9.46102V9.46059V9.46016V9.45972V9.45929V9.45886V9.45843V9.458V9.45757V9.45713V9.4567V9.45627V9.45584V9.45541V9.45498V9.45454V9.45411V9.45368V9.45325V9.45282V9.45238V9.45195V9.45152V9.45109V9.45066V9.45023V9.44979V9.44936V9.44893V9.4485V9.44807V9.44764V9.4472V9.44677V9.44634V9.44591V9.44548V9.44505V9.44461V9.44418V9.44375V9.44332V9.44289V9.44245V9.44202V9.44159V9.44116V9.44073V9.4403V9.43986V9.43943V9.439V9.43857V9.43814V9.43771V9.43727V9.43684V9.43641V9.43598V9.43555V9.43511V9.43468V9.43425V9.43382V9.43339V9.43296V9.43252V9.43209V9.43166V9.43123V9.4308V9.43037V9.42993V9.4295V9.42907V9.42864V9.42821V9.42778V9.42734V9.42691V9.42648V9.42605V9.42562V9.42519V9.42475V9.42432V9.42389V9.42346V9.42303V9.42259V9.42216V9.42173V9.4213V9.42087V9.42044V9.42V9.41957V9.41914V9.41871V9.41828V9.41785V9.41741V9.41698V9.41655V9.41612V9.41569V9.41525V9.41482V9.41439V9.41396V9.41353V9.4131V9.41266V9.41223V9.4118V9.41137V9.41094V9.41051V9.41007V9.40964V9.40921V9.40878V9.40835V9.40792V9.40748V9.40705V9.40662V9.40619V9.40576V9.40532V9.40489V9.40446V9.40403V9.4036V9.40317V9.40273V9.4023V9.40187V9.40144V9.40101V9.40058V9.40014V9.39971V9.39928V9.39885V9.39842V9.39799V9.39755V9.39712V9.39669V9.39626V9.39583V9.39539V9.39496V9.39453V9.3941V9.39367V9.39324V9.3928V9.39237V9.39194V9.39151V9.39108V9.39065V9.39021V9.38978V9.38935V9.38892V9.38849V9.38805V9.38762V9.38719V9.38676V9.38633V9.3859V9.38546V9.38503V9.3846V9.38417V9.38374V9.38331V9.38287V9.38244V9.38201V9.38158V9.38115V9.38072V9.38028V9.37985V9.37942V9.37899V9.37856V9.37813V9.37769V9.37726V9.37683V9.3764V9.37597V9.37553V9.3751V9.37467V9.37424V9.37381V9.37338V9.37294V9.37251V9.37208V9.37165V9.37122V9.37079V9.37035V9.36992V9.36949V9.36906V9.36863V9.36819V9.36776V9.36733V9.3669V9.36647V9.36604V9.3656V9.36517V9.36474V9.36431V9.36388V9.36345V9.36301V9.36258V9.36215V9.36172V9.36129V9.36086V9.36042V9.35999V9.35956V9.35913V9.3587V9.35826V9.35783V9.3574V9.35697V9.35654V9.35611V9.35567V9.35524V9.35481V9.35438V9.35395V9.35352V9.35308V9.35265V9.35222V9.35179V9.35136V9.35093V9.35049V9.35006V9.34963V9.3492V9.34877V9.34833V9.3479V9.34747V9.34704V9.34661V9.34618V9.34574V9.34531V9.34488V9.34445V9.34402V9.34359V9.34315V9.34272V9.34229V9.34186V9.34143V9.34099V9.34056V9.34013V9.3397V9.33927V9.33884V9.3384V9.33797V9.33754V9.33711V9.33668V9.33625V9.33581V9.33538V9.33495V9.33452V9.33409V9.33366V9.33322V9.33279V9.33236V9.33193V9.3315V9.33107V9.33063V9.3302V9.32977V9.32934V9.32891V9.32847V9.32804V9.32761V9.32718V9.32675V9.32632C8.42838 9.29024 8.4247 9.24129 8.42095 9.19147C8.41881 9.16287 8.41663 9.13398 8.41512 9.10707C8.41296 9.0685 8.41198 9.03258 8.41349 9.00242C8.41508 8.97071 8.41924 8.95153 8.42351 8.94257ZM8.03409 7.2163L8.03452 7.21561C8.34237 6.71346 9.24037 5.98684 10.4865 5.98684C11.0084 5.98684 11.6978 6.08741 12.256 6.53315C12.812 6.97717 13.2473 7.7714 13.2473 9.17895V14.2132H11.6257V9.54737C11.6257 8.89274 11.4294 8.3456 11.0767 7.96158C10.7236 7.57712 10.2178 7.36053 9.60811 7.36053C8.67136 7.36053 7.95184 8.00204 7.69941 8.64488L7.6993 8.64484L7.6983 8.64801C7.62567 8.87647 7.62567 9.10421 7.62568 9.35902V9.36316V9.36359V9.36402V9.36445V9.36488V9.36531V9.36573V9.36616V9.36659V9.36701V9.36743V9.36786V9.36828V9.3687V9.36912V9.36954V9.36996V9.37038V9.3708V9.37121V9.37163V9.37204V9.37246V9.37287V9.37328V9.3737V9.37411V9.37452V9.37493V9.37534V9.37575V9.37615V9.37656V9.37697V9.37737V9.37778V9.37818V9.37858V9.37899V9.37939V9.37979V9.38019V9.38059V9.38099V9.38139V9.38178V9.38218V9.38258V9.38297V9.38337V9.38376V9.38415V9.38455V9.38494V9.38533V9.38572V9.38611V9.3865V9.38689V9.38728V9.38766V9.38805V9.38844V9.38882V9.38921V9.38959V9.38997V9.39036V9.39074V9.39112V9.3915V9.39188V9.39226V9.39264V9.39302V9.3934V9.39378V9.39415V9.39453V9.39491V9.39528V9.39565V9.39603V9.3964V9.39678V9.39715V9.39752V9.39789V9.39826V9.39863V9.399V9.39937V9.39974V9.40011V9.40047V9.40084V9.40121V9.40157V9.40194V9.4023V9.40267V9.40303V9.40339V9.40375V9.40412V9.40448V9.40484V9.4052V9.40556V9.40592V9.40628V9.40664V9.407V9.40735V9.40771V9.40807V9.40842V9.40878V9.40913V9.40949V9.40984V9.4102V9.41055V9.4109V9.41126V9.41161V9.41196V9.41231V9.41266V9.41302V9.41337V9.41372V9.41406V9.41441V9.41476V9.41511V9.41546V9.4158V9.41615V9.4165V9.41684V9.41719V9.41754V9.41788V9.41823V9.41857V9.41891V9.41926V9.4196V9.41994V9.42029V9.42063V9.42097V9.42131V9.42165V9.42199V9.42233V9.42267V9.42301V9.42335V9.42369V9.42403V9.42437V9.42471V9.42505V9.42538V9.42572V9.42606V9.42639V9.42673V9.42707V9.4274V9.42774V9.42807V9.42841V9.42874V9.42908V9.42941V9.42975V9.43008V9.43041V9.43075V9.43108V9.43141V9.43174V9.43208V9.43241V9.43274V9.43307V9.4334V9.43373V9.43406V9.4344V9.43473V9.43506V9.43539V9.43572V9.43605V9.43638V9.4367V9.43703V9.43736V9.43769V9.43802V9.43835V9.43868V9.439V9.43933V9.43966V9.43999V9.44031V9.44064V9.44097V9.4413V9.44162V9.44195V9.44228V9.4426V9.44293V9.44325V9.44358V9.44391V9.44423V9.44456V9.44488V9.44521V9.44553V9.44586V9.44618V9.44651V9.44683V9.44716V9.44748V9.44781V9.44813V9.44846V9.44878V9.44911V9.44943V9.44976V9.45008V9.4504V9.45073V9.45105V9.45138V9.4517V9.45202V9.45235V9.45267V9.453V9.45332V9.45364V9.45397V9.45429V9.45462V9.45494V9.45526V9.45559V9.45591V9.45623V9.45656V9.45688V9.45721V9.45753V9.45785V9.45818V9.4585V9.45883V9.45915V9.45947V9.4598V9.46012V9.46045V9.46077V9.46109V9.46142V9.46174V9.46207V9.46239V9.46272V9.46304V9.46337V9.46369V9.46402V9.46434V9.46467V9.46499V9.46532V9.46564V9.46597V9.46629V9.46662V9.46695V9.46727V9.4676V9.46792V9.46825V9.46858V9.4689V9.46923V9.46956V9.46988V9.47021V9.47054V9.47087V9.47119V9.47152V9.47185V9.47218V9.47251V9.47284V9.47316V9.47349V9.47382V9.47415V9.47448V9.47481V9.47514V9.47547V9.4758V9.47613V9.47646V9.47679V9.47712V9.47746V9.47779V9.47812V9.47845V9.47878V9.47911V9.47945V9.47978V9.48011V9.48045V9.48078V9.48111V9.48145V9.48178V9.48212V9.48245V9.48279V9.48312V9.48346V9.4838V9.48413V9.48447V9.48481V9.48514V9.48548V9.48582V9.48616V9.4865V9.48683V9.48717V9.48751V9.48785V9.48819V9.48853V9.48887V9.48922V9.48956V9.4899V9.49024V9.49058V9.49093V9.49127V9.49161V9.49196V9.4923V9.49265V9.49299V9.49334V9.49368V9.49403V9.49437V9.49472V9.49507V9.49542V9.49576V9.49611V9.49646V9.49681V9.49716V9.49751V9.49786V9.49821V9.49856V9.49892V9.49927V9.49962V9.49997V9.50033V9.50068V9.50104V9.50139V9.50175V9.5021V9.50246V9.50282V9.50317V9.50353V9.50389V9.50425V9.50461V9.50497V9.50533V9.50569V9.50605V9.50641V9.50677V9.50713V9.5075V9.50786V9.50823V9.50859V9.50896V9.50932V9.50969V9.51005V9.51042V9.51079V9.51116V9.51153V9.5119V9.51227V9.51264V9.51301V9.51338V9.51375V9.51412V9.5145V9.51487V9.51525V9.51562V9.516V9.51637V9.51675V9.51713V9.51751V9.51789V9.51826V9.51864V9.51902V9.51941V9.51979V9.52017V9.52055V9.52094V9.52132V9.52171V9.52209V9.52248V9.52286V9.52325V9.52364V9.52403V9.52442V9.52481V9.5252V9.52559V9.52598V9.52637V9.52677V9.52716V9.52756V9.52795V9.52835V9.52874V9.52914V9.52954V9.52994V9.53034V9.53074V9.53114V9.53154V9.53194V9.53235V9.53275V9.53316V9.53356V9.53397V9.53437V9.53478V9.53519V9.5356V9.53601V9.53642V9.53683V9.53724V9.53765V9.53807V9.53848V9.5389V9.53931V9.53973V9.54015V9.54057V9.54099V9.54141V9.54183V9.54225V9.54267V9.54309V9.54352V9.54394V9.54437V9.54479V9.54522V9.54565V9.54608V9.54651V9.54694V9.54737V14.2132H5.96892V8.22105V8.21674V8.21242V8.20811V8.2038V8.1995V8.19519V8.19089V8.18659V8.1823V8.178V8.17371V8.16942V8.16514V8.16085V8.15657V8.1523V8.14802V8.14375V8.13947V8.13521V8.13094V8.12668V8.12241V8.11816V8.1139V8.10964V8.10539V8.10114V8.0969V8.09265V8.08841V8.08417V8.07994V8.0757V8.07147V8.06724V8.06301V8.05879V8.05456V8.05034V8.04613V8.04191V8.0377V8.03349V8.02928V8.02507V8.02087V8.01667V8.01247V8.00827V8.00408V7.99989V7.9957V7.99151V7.98733V7.98315V7.97897V7.97479V7.97061V7.96644V7.96227V7.9581V7.95394V7.94977V7.94561V7.94145V7.9373V7.93314V7.92899V7.92484V7.92069V7.91655V7.91241V7.90827V7.90413V7.89999V7.89586V7.89173V7.8876V7.88347V7.87935V7.87523V7.87111V7.86699V7.86287V7.85876V7.85465V7.85054V7.84643V7.84233V7.83823V7.83413V7.83003V7.82593V7.82184V7.81775V7.81366V7.80958V7.80549V7.80141V7.79733V7.79325V7.78918V7.7851V7.78103V7.77696V7.7729V7.76883V7.76477V7.76071V7.75665V7.7526V7.74854V7.74449V7.74044V7.73639V7.73235V7.72831V7.72426V7.72023V7.71619V7.71216V7.70812V7.70409V7.70006V7.69604V7.69202V7.68799V7.68397V7.67996V7.67594V7.67193V7.66792V7.66391V7.6599V7.6559V7.65189V7.64789V7.64389V7.6399V7.6359V7.63191V7.62792V7.62393V7.61995V7.61596V7.61198V7.608V7.60402V7.60004V7.59607V7.5921V7.58813V7.58416V7.58019V7.57623V7.57227V7.56831V7.56435V7.5604V7.55644V7.55249V7.54854V7.54459V7.54065V7.5367V7.53276V7.52882V7.52488V7.52095V7.51701V7.51308V7.50915V7.50522V7.5013V7.49737V7.49345V7.48953V7.48561V7.48169V7.47778V7.47387V7.46996V7.46605V7.46214V7.45824V7.45433V7.45043V7.44653V7.44264V7.43874V7.43485V7.43096V7.42707V7.42318V7.41929V7.41541V7.41153V7.40765V7.40377V7.39989V7.39602V7.39215V7.38827V7.38441V7.38054V7.37667V7.37281V7.36895V7.36509V7.36123V7.35737V7.35352V7.34967V7.34582V7.34197V7.33812V7.33428V7.33043V7.32659V7.32275V7.31891V7.31508V7.31124V7.30741V7.30358V7.29975V7.29592V7.2921V7.28828V7.28445V7.28063V7.27681V7.273V7.26918V7.26537V7.26156V7.25775V7.25394V7.25014V7.24633V7.24253V7.23873V7.23493V7.23113V7.22734V7.22354V7.21975V7.21596V7.21217V7.20838V7.2046V7.20081V7.19703V7.19325V7.18947V7.1857V7.18192V7.17815V7.17438V7.17061V7.16684V7.16307V7.15931V7.15554V7.15178V7.14802V7.14426V7.1405V7.13675V7.133V7.12924V7.12549V7.12174V7.118V7.11425V7.11051V7.10677V7.10302V7.09929V7.09555V7.09181V7.08808V7.08435V7.08061V7.07689V7.07316V7.06943V7.06571V7.06198V7.05826V7.05454V7.05082V7.04711V7.04339V7.03968V7.03597V7.03225V7.02855V7.02484V7.02113V7.01743V7.01372V7.01002V7.00632V7.00263V6.99893V6.99523V6.99154V6.98785V6.98416V6.98047V6.97678V6.97309V6.96941V6.96573V6.96204V6.95836V6.95468V6.95101V6.94733V6.94366V6.93998V6.93631V6.93264V6.92897V6.92531V6.92164V6.91798V6.91432V6.91065V6.90699V6.90334V6.89968V6.89602V6.89237V6.88872V6.88507V6.88142V6.87777V6.87412V6.87047V6.86683V6.86319V6.85955V6.85591V6.85227V6.84863V6.84499V6.84136V6.83773V6.8341V6.83046V6.82684V6.82321V6.81958V6.81596V6.81233V6.80871V6.80509V6.80147V6.79785V6.79424V6.79062V6.78701V6.78339V6.77978V6.77617V6.77256V6.76896V6.76535V6.76174V6.75814V6.75454V6.75094V6.74734V6.74374V6.74014V6.73655V6.73295V6.72936V6.72577V6.72218V6.71859V6.715V6.71141V6.70782V6.70424V6.70066V6.69707V6.69349V6.68991V6.68634V6.68276V6.67918V6.67561V6.67204V6.66846V6.66489V6.66132V6.65775V6.65419V6.65062V6.64706V6.64349V6.63993V6.63637V6.63281V6.62925V6.62569V6.62214V6.61858V6.61503V6.61147V6.60792V6.60437V6.60082V6.59727V6.59373V6.59018V6.58664V6.58309V6.57955V6.57601V6.57247V6.56893V6.56539V6.56185V6.55832V6.55478V6.55125V6.54772V6.54419V6.54065V6.53713V6.5336V6.53007V6.52654V6.52302V6.5195V6.51597V6.51245V6.50893V6.50541V6.50189V6.49838V6.49486V6.49134V6.48783V6.48432V6.48081V6.47729V6.47378V6.47028V6.46677V6.46326V6.45975V6.45625V6.45275V6.44924V6.44574V6.44224V6.43874V6.43524V6.43175V6.42825V6.42475V6.42126V6.41776V6.41427V6.41078V6.40729V6.4038V6.40031V6.39682V6.39334V6.38985V6.38636V6.38288V6.3794V6.37592V6.37243V6.36895V6.36547V6.362V6.35852V6.35504V6.35157V6.34809V6.34462V6.34115V6.33767V6.3342V6.33073V6.32726V6.32379V6.32033V6.31842H7.27432V7.00526C7.27432 7.12646 7.31301 7.23164 7.38476 7.30688C7.45672 7.38233 7.55817 7.42368 7.67568 7.42368C7.83672 7.42368 7.95663 7.33813 8.03409 7.2163ZM4.21219 2.65789L4.21213 2.65613C4.1942 2.14859 4.02366 1.72179 3.7372 1.42141C3.45042 1.12071 3.05054 0.95 2.58108 0.95C1.63774 0.95 0.95 1.67465 0.95 2.65789C0.95 3.64038 1.63702 4.36579 2.54595 4.36579C3.5237 4.36579 4.21216 3.64189 4.21219 2.65789ZM1.35135 15.05H3.81081C3.86966 15.05 3.92097 15.0396 3.96808 15.0177C4.0149 14.9959 4.05496 14.9638 4.09294 14.924C4.17106 14.8421 4.21216 14.7564 4.21216 14.6316V5.42105C4.21216 5.29986 4.17348 5.19468 4.10172 5.11944C4.02977 5.04399 3.92831 5.00263 3.81081 5.00263H1.35135C1.23385 5.00263 1.1324 5.04399 1.06044 5.11944C0.988685 5.19468 0.95 5.29986 0.95 5.42105V14.6316C0.95 14.7528 0.988685 14.858 1.06044 14.9332C1.1324 15.0086 1.23385 15.05 1.35135 15.05ZM3.40946 5.83947V14.2132H1.7527V5.83947H3.40946ZM1.68243 2.65789C1.68243 2.37436 1.77514 2.14838 1.93118 1.99337C2.08731 1.83827 2.31109 1.75 2.58108 1.75C2.85091 1.75 3.06534 1.83813 3.21247 1.9924C3.35985 2.14694 3.44459 2.37304 3.44459 2.65789C3.44459 2.94143 3.35189 3.16741 3.19584 3.32242C3.03972 3.47752 2.81594 3.56579 2.54595 3.56579C2.04874 3.56579 1.68243 3.18517 1.68243 2.65789Z" fill="white" stroke="white" stroke-width="0.1"/>
</svg>
