<?xml version="1.0" encoding="iso-8859-1"?>
<!-- Generator: Adobe Illustrator 19.0.0, SVG Export Plug-In . SVG Version: 6.00 Build 0)  -->
<svg version="1.1" id="Capa_1" xmlns="http://www.w3.org/2000/svg" xmlns:xlink="http://www.w3.org/1999/xlink" x="0px" y="0px"
	 viewBox="0 0 512 512" style="enable-background:new 0 0 512 512;" xml:space="preserve">
<path style="fill:#D1E7F8;" d="M512,430.998H0v-370h512V430.998z"/>
<rect x="256" y="60.998" style="fill:#BDDBFF;" width="256" height="370"/>
<g>
	<path style="fill:#00D7DF;" d="M188.46,348.537c-10.551,0-20.47-4.108-27.931-11.569c-1.795-1.795-4.18-2.783-6.717-2.783
		c-2.538,0-4.923,0.988-6.718,2.782l-5.304,5.304l-21.213-21.213l5.304-5.304c7.46-7.46,17.379-11.569,27.931-11.569
		c10.551,0,20.47,4.109,27.93,11.569c1.795,1.794,4.181,2.782,6.718,2.782c2.538,0,4.923-0.988,6.718-2.782l0.707-0.707
		c1.795-1.795,2.782-4.18,2.782-6.717c0-2.538-0.987-4.923-2.782-6.717c-1.795-1.795-4.18-2.783-6.718-2.783
		c-2.537,0-4.923,0.988-6.718,2.783l-21.213-21.214c7.461-7.46,17.38-11.569,27.931-11.569c10.552,0,20.471,4.109,27.931,11.569
		c7.461,7.46,11.569,17.379,11.569,27.931c0,10.551-4.108,20.47-11.569,27.931l-0.707,0.707
		C208.931,344.428,199.012,348.537,188.46,348.537z"/>
	<path style="fill:#00D7DF;" d="M85.46,344.537c-10.551,0-20.47-4.108-27.931-11.569c-1.795-1.795-4.18-2.783-6.717-2.783
		c-2.538,0-4.923,0.988-6.718,2.782l-5.304,5.304L0,333.998l22.882-22.243c7.46-7.46,17.379-11.569,27.931-11.569
		c10.551,0,20.47,4.109,27.93,11.569c1.795,1.794,4.181,2.782,6.718,2.782c2.538,0,4.923-0.988,6.718-2.782l0.707-0.707
		c1.795-1.795,2.782-4.18,2.782-6.717c0-2.538-0.987-4.923-2.782-6.717c-1.795-1.795-4.18-2.783-6.718-2.783
		c-2.537,0-4.923,0.988-6.718,2.783L58.237,276.4c7.461-7.46,17.38-11.569,27.931-11.569c10.552,0,20.471,4.109,27.931,11.569
		c7.461,7.46,11.569,17.379,11.569,27.931c0,10.551-4.108,20.47-11.569,27.931l-0.707,0.707
		C105.931,340.428,96.012,344.537,85.46,344.537z"/>
	<path style="fill:#00D7DF;" d="M285.46,360.537c-10.551,0-20.47-4.108-27.931-11.569c-1.795-1.795-4.18-2.783-6.717-2.783
		c-2.538,0-4.923,0.988-6.718,2.782l-5.304,5.304l-21.213-21.213l5.304-5.304c7.46-7.46,17.379-11.569,27.931-11.569
		c10.551,0,20.47,4.109,27.93,11.569c1.795,1.794,4.181,2.782,6.718,2.782c2.538,0,4.923-0.988,6.718-2.782l0.707-0.707
		c1.795-1.795,2.782-4.18,2.782-6.717c0-2.538-0.987-4.923-2.782-6.717c-1.795-1.795-4.18-2.783-6.718-2.783
		c-2.537,0-4.923,0.988-6.718,2.783l-21.213-21.214c7.461-7.46,17.38-11.569,27.931-11.569c10.552,0,20.471,4.109,27.931,11.569
		c7.461,7.46,11.569,17.379,11.569,27.931c0,10.551-4.108,20.47-11.569,27.931l-0.707,0.707
		C305.931,356.428,296.012,360.537,285.46,360.537z"/>
</g>
<path style="fill:#FFB64C;" d="M105,210.998c-24.813,0-45-20.187-45-45s20.187-45,45-45s45,20.187,45,45
	S129.813,210.998,105,210.998z"/>
<path style="fill:#FFE470;" d="M105,210.998c-24.813,0-45-20.187-45-45s20.187-45,45-45s45,20.187,45,45
	S129.813,210.998,105,210.998z M105,150.998c-8.271,0-15,6.729-15,15s6.729,15,15,15s15-6.729,15-15S113.271,150.998,105,150.998z"
	/>
<path style="fill:#FFF5CC;" d="M218.801,244.998c-11.795,0-23.185-4.945-31.249-13.566c-8.071-8.63-12.246-20.366-11.454-32.199
	c1.397-20.863,17.882-37.737,38.57-39.723c5.617-14.342,19.57-24.511,35.851-24.511c14.436,0,27.041,7.995,33.628,19.793
	c3.983-0.861,8.109-1.157,12.252-0.852c21.064,1.55,38.045,18.625,39.498,39.72c0.815,11.849-3.348,23.604-11.421,32.253
	c-8.066,8.64-19.466,13.596-31.276,13.596v-30c3.578,0,6.897-1.445,9.347-4.068c2.456-2.631,3.672-6.083,3.421-9.72
	c-0.427-6.197-5.597-11.408-11.77-11.862c-4.095-0.302-7.042,1.266-8.804,2.632c-4.98,3.859-11.581,4.532-17.229,1.76
	c-5.651-2.773-9.159-8.408-9.153-14.704c0-4.723-3.81-8.549-8.493-8.549s-8.494,3.826-8.494,8.529
	c0.005,5.098-2.275,9.829-6.257,12.986c-3.975,3.153-9.095,4.296-14.037,3.133c-1.239-0.29-2.534-0.393-3.842-0.304
	c-6.231,0.423-11.439,5.647-11.857,11.894c-0.243,3.631,0.976,7.077,3.432,9.702c2.447,2.618,5.764,4.059,9.338,4.059v30.001
	H218.801z M212.024,173.524c0,0.013,0,0.025,0,0.038C212.024,173.55,212.024,173.537,212.024,173.524z M289.012,173.493
	c0,0.011,0,0.022,0,0.034C289.012,173.516,289.012,173.504,289.012,173.493z"/>
<path style="fill:#00AADF;" d="M286.167,280.831c-10.551,0-20.47,4.108-27.931,11.569l21.213,21.214
	c1.795-1.794,4.181-2.783,6.718-2.783c2.538,0,4.923,0.988,6.718,2.783c1.795,1.794,2.782,4.18,2.782,6.717
	c0,2.537-0.987,4.922-2.782,6.717l-0.707,0.707c-1.795,1.794-4.18,2.782-6.718,2.782c-2.537,0-4.923-0.988-6.718-2.782
	c-6.223-6.223-14.158-10.103-22.742-11.223v31.197c0.544,0.357,1.058,0.768,1.529,1.24c7.461,7.46,17.38,11.569,27.931,11.569
	c10.552,0,20.471-4.109,27.931-11.569l0.707-0.707c7.461-7.46,11.569-17.38,11.569-27.931s-4.108-20.471-11.569-27.931
	C306.638,284.939,296.719,280.831,286.167,280.831z"/>
<path style="fill:#0091BF;" d="M512,430.998H0V333.87l10.649-3.228c88.833-26.917,174.69-14.733,257.724-2.95
	c77.116,10.943,149.953,21.28,225.031,2.743L512,325.843V430.998z"/>
<path style="fill:#007A9F;" d="M268.373,327.692c-4.117-0.584-8.242-1.169-12.373-1.751v105.056h256V325.843l-18.596,4.592
	C418.326,348.972,345.489,338.635,268.373,327.692z"/>
<path style="fill:#FFDAAA;" d="M296.398,153.939c-4.143-0.306-8.269-0.01-12.252,0.852c-5.738-10.277-16.044-17.663-28.146-19.398
	v31.632c1.839,1.568,3.012,3.906,3.012,6.522c-0.006,6.296,3.502,11.931,9.153,14.704c5.647,2.772,12.248,2.099,17.229-1.76
	c1.762-1.367,4.709-2.935,8.804-2.632c6.173,0.454,11.343,5.665,11.77,11.862c0.251,3.636-0.965,7.088-3.421,9.72
	c-2.449,2.623-5.769,4.068-9.347,4.068v30c11.811,0,23.21-4.956,31.276-13.596c8.073-8.649,12.236-20.404,11.421-32.253
	C334.443,172.564,317.463,155.489,296.398,153.939z"/>
<path style="fill:#99503D;" d="M401,511.998c-19.239,0-35.02-15.054-35.926-34.271l-0.008-0.19l-9.592-278.538h91.051l-9.6,278.729
	C436.02,496.944,420.239,511.998,401,511.998z"/>
<path style="fill:#804231;" d="M401,198.998v313c19.239,0,35.02-15.054,35.926-34.271l9.6-278.729L401,198.998L401,198.998z"/>
<path style="fill:#D97F4A;" d="M401,168.998c-18.697,0-36.276-7.281-49.497-20.502l0,0l0,0C338.281,135.274,331,117.695,331,98.998
	s7.281-36.276,20.503-49.498L401,0.002L450.497,49.5C463.719,62.721,471,80.3,471,98.998s-7.281,36.276-20.503,49.498
	C437.276,161.716,419.698,168.998,401,168.998z"/>
<path style="fill:#AD5E2E;" d="M450.497,49.5L401,0.002v168.995c18.698,0,36.276-7.282,49.497-20.502
	C463.719,135.274,471,117.695,471,98.998S463.719,62.721,450.497,49.5z"/>
<path style="fill:#FFE470;" d="M426,228.998h-50c-13.785,0-25-11.215-25-25v-40c0-13.785,11.215-25,25-25h50
	c13.785,0,25,11.215,25,25v40C451,217.783,439.785,228.998,426,228.998z"/>
<path style="fill:#FFB64C;" d="M426,138.998h-25v90h25c13.785,0,25-11.215,25-25v-40C451,150.212,439.785,138.998,426,138.998z"/>
<g>
</g>
<g>
</g>
<g>
</g>
<g>
</g>
<g>
</g>
<g>
</g>
<g>
</g>
<g>
</g>
<g>
</g>
<g>
</g>
<g>
</g>
<g>
</g>
<g>
</g>
<g>
</g>
<g>
</g>
</svg>
