<svg width="64" height="64" viewBox="0 0 64 64" fill="none" xmlns="http://www.w3.org/2000/svg">
<path d="M42.3688 33.5906L43.4287 35.2866L43.4304 35.2855L42.3688 33.5906ZM27.3687 42.9656L28.4279 44.6621L28.4287 44.6616L27.3687 42.9656ZM42.3688 30.4101L43.4307 28.7154L43.4287 28.7141L42.3688 30.4101ZM27.3687 21.0351L26.308 22.7307L26.3088 22.7311L27.3687 21.0351ZM25.4659 20.9857L26.4357 22.7348L26.4399 22.7325L25.4659 20.9857ZM25.4659 43.0151L26.4375 41.2669L26.4357 41.2659L25.4659 43.0151ZM32 0C14.3271 0 0 14.3269 0 32H4C4 16.536 16.5362 4 32 4V0ZM64 32C64 14.3269 49.6729 0 32 0V4C47.4638 4 60 16.536 60 32H64ZM32 64C49.6729 64 64 49.6731 64 32H60C60 47.464 47.4638 60 32 60V64ZM0 32C0 49.6731 14.3271 64 32 64V60C16.5362 60 4 47.464 4 32H0ZM41.3088 31.8946L26.3088 41.2696L28.4287 44.6616L43.4287 35.2866L41.3088 31.8946ZM41.25 32.0004C41.25 31.956 41.2727 31.9172 41.3071 31.8957L43.4304 35.2855C44.5607 34.5775 45.25 33.3373 45.25 32.0004H41.25ZM41.3068 32.1049C41.2729 32.0836 41.25 32.0449 41.25 32.0004H45.25C45.25 30.6633 44.5606 29.4234 43.4307 28.7154L41.3068 32.1049ZM26.3088 22.7311L41.3088 32.1061L43.4287 28.7141L28.4287 19.3391L26.3088 22.7311ZM26.4399 22.7325C26.3956 22.7572 26.3448 22.7537 26.308 22.7307L28.4295 19.3396C27.2365 18.5933 25.7281 18.5495 24.4918 19.2389L26.4399 22.7325ZM26.5 22.6254C26.5 22.6709 26.4749 22.7131 26.4357 22.7348L24.496 19.2366C23.2648 19.9192 22.5 21.2158 22.5 22.6254H26.5ZM26.5 41.3754V22.6254H22.5V41.3754H26.5ZM26.4357 41.2659C26.4749 41.2877 26.5 41.3299 26.5 41.3754H22.5C22.5 42.7849 23.2648 44.0815 24.496 44.7642L26.4357 41.2659ZM26.375 41.2504C26.3944 41.2504 26.4168 41.2554 26.4375 41.2669L24.4942 44.7632C25.0816 45.0897 25.7302 45.2504 26.375 45.2504V41.2504ZM26.3096 41.2691C26.3295 41.2566 26.3525 41.2504 26.375 41.2504V45.2504C27.0877 45.2504 27.8009 45.0536 28.4279 44.6621L26.3096 41.2691Z" fill="white"/>
</svg>
