<svg width="59" height="59" viewBox="0 0 59 59" fill="none" xmlns="http://www.w3.org/2000/svg">
<path d="M29.4883 58.9992C13.0467 58.93 -0.0263652 45.6986 3.99294e-05 29.4663C0.0264451 13.0417 13.2856 -0.0163276 29.5122 1.53238e-05C45.9525 0.0163582 59.0256 13.2881 59.0005 29.5216C58.974 45.9512 45.7099 58.9627 29.4883 58.9992ZM5.35903 29.5052C5.36657 42.8297 16.1889 53.6387 29.5109 53.6299C42.838 53.6211 53.6503 42.8021 53.6402 29.4826C53.6314 16.1569 42.8116 5.35043 29.487 5.35797C16.1612 5.36552 5.35148 16.1833 5.35903 29.5052Z" fill="#02BC4D"/>
<path d="M18.7819 29.7695C18.8297 28.6532 19.3666 27.8398 20.3725 27.3772C21.3558 26.9246 22.329 27.0491 23.1299 27.7619C24.0742 28.6016 24.9431 29.5282 25.8421 30.4182C26.1766 30.7488 26.5085 31.0832 26.8418 31.4164C27.1398 31.7131 27.1398 31.7143 27.429 31.4252C29.7187 29.1359 32.0046 26.8454 34.2968 24.5599C35.1493 23.7101 35.9817 22.8338 36.8871 22.0431C37.9156 21.1442 39.4559 21.2687 40.4191 22.243C41.3747 23.2097 41.5054 24.7434 40.619 25.7517C39.7702 26.7172 38.8335 27.6047 37.9257 28.5161C35.0274 31.4214 32.1241 34.3216 29.2233 37.2231C28.6235 37.8228 27.9407 38.2125 27.0555 38.1823C26.3225 38.1572 25.7164 37.8655 25.2109 37.3627C23.3324 35.4958 21.4589 33.6252 19.5929 31.747C19.0573 31.2064 18.7467 30.5578 18.7819 29.7695Z" fill="#02BC4D"/>
</svg>
