<svg viewBox="0 0 64 64" xmlns="http://www.w3.org/2000/svg"><path d="m25 6h10v12h-10z" fill="#99a2b9"/><path d="m35 18.5h-10a.5.5 0 0 1 -.5-.5v-12a.5.5 0 0 1 .5-.5h10a.5.5 0 0 1 .5.5v12a.5.5 0 0 1 -.5.5zm-9.5-1h9v-11h-9z" fill="#212a41"/><path d="m29 6h10v12h-10z" fill="#b7c0d7"/><path d="m39 18.5h-10a.5.5 0 0 1 -.5-.5v-12a.5.5 0 0 1 .5-.5h10a.5.5 0 0 1 .5.5v12a.5.5 0 0 1 -.5.5zm-9.5-1h9v-11h-9z" fill="#212a41"/><path d="m39 9.5h-14a.5.5 0 0 1 0-1h14a.5.5 0 0 1 0 1z" fill="#212a41"/><path d="m46 6h10v12h-10z" fill="#99a2b9"/><path d="m56 18.5h-10a.5.5 0 0 1 -.5-.5v-12a.5.5 0 0 1 .5-.5h10a.5.5 0 0 1 .5.5v12a.5.5 0 0 1 -.5.5zm-9.5-1h9v-11h-9z" fill="#212a41"/><path d="m50 6h10v12h-10z" fill="#b7c0d7"/><path d="m60 18.5h-10a.5.5 0 0 1 -.5-.5v-12a.5.5 0 0 1 .5-.5h10a.5.5 0 0 1 .5.5v12a.5.5 0 0 1 -.5.5zm-9.5-1h9v-11h-9z" fill="#212a41"/><path d="m4 6h10v12h-10z" fill="#99a2b9"/><path d="m14 18.5h-10a.5.5 0 0 1 -.5-.5v-12a.5.5 0 0 1 .5-.5h10a.5.5 0 0 1 .5.5v12a.5.5 0 0 1 -.5.5zm-9.5-1h9v-11h-9z" fill="#212a41"/><path d="m8 6h10v12h-10z" fill="#b7c0d7"/><path d="m18 18.5h-10a.5.5 0 0 1 -.5-.5v-12a.5.5 0 0 1 .5-.5h10a.5.5 0 0 1 .5.5v12a.5.5 0 0 1 -.5.5zm-9.5-1h9v-11h-9z" fill="#212a41"/><path d="m34 26h-4l-5 6h4z" fill="#db8e11"/><path d="m29 32.5h-4a.5.5 0 0 1 -.384-.82l5-6a.5.5 0 0 1 .384-.18h4a.5.5 0 0 1 .384.82l-5 6a.5.5 0 0 1 -.384.18zm-2.933-1h2.7l4.167-5h-2.7z" fill="#212a41"/><path d="m34 26-5 6h10z" fill="#f9ac2f"/><path d="m39 32.5h-10a.5.5 0 0 1 -.384-.82l5-6a.515.515 0 0 1 .768 0l5 6a.5.5 0 0 1 -.384.82zm-8.933-1h7.866l-3.933-4.719z" fill="#212a41"/><path d="m34 38h-4l-5-6h4z" fill="#db8e11"/><path d="m34 38.5h-4a.5.5 0 0 1 -.384-.18l-5-6a.5.5 0 0 1 .384-.82h4a.5.5 0 0 1 .384.18l5 6a.5.5 0 0 1 -.384.82zm-3.766-1h2.7l-4.167-5h-2.7z" fill="#212a41"/><path d="m34 38-5-6h10z" fill="#f9ac2f"/><path d="m34 38.5a.5.5 0 0 1 -.384-.18l-5-6a.5.5 0 0 1 .384-.82h10a.5.5 0 0 1 .384.82l-5 6a.5.5 0 0 1 -.384.18zm-3.933-6 3.933 4.719 3.933-4.719z" fill="#212a41"/><path d="m46 26h10v12h-10z" fill="#99a2b9"/><path d="m56 38.5h-10a.5.5 0 0 1 -.5-.5v-12a.5.5 0 0 1 .5-.5h10a.5.5 0 0 1 .5.5v12a.5.5 0 0 1 -.5.5zm-9.5-1h9v-11h-9z" fill="#212a41"/><path d="m50 26h10v12h-10z" fill="#b7c0d7"/><path d="m60 38.5h-10a.5.5 0 0 1 -.5-.5v-12a.5.5 0 0 1 .5-.5h10a.5.5 0 0 1 .5.5v12a.5.5 0 0 1 -.5.5zm-9.5-1h9v-11h-9z" fill="#212a41"/><path d="m4 26h10v12h-10z" fill="#99a2b9"/><path d="m14 38.5h-10a.5.5 0 0 1 -.5-.5v-12a.5.5 0 0 1 .5-.5h10a.5.5 0 0 1 .5.5v12a.5.5 0 0 1 -.5.5zm-9.5-1h9v-11h-9z" fill="#212a41"/><path d="m8 26h10v12h-10z" fill="#b7c0d7"/><path d="m18 38.5h-10a.5.5 0 0 1 -.5-.5v-12a.5.5 0 0 1 .5-.5h10a.5.5 0 0 1 .5.5v12a.5.5 0 0 1 -.5.5zm-9.5-1h9v-11h-9z" fill="#212a41"/><path d="m25 46h10v12h-10z" fill="#99a2b9"/><path d="m35 58.5h-10a.5.5 0 0 1 -.5-.5v-12a.5.5 0 0 1 .5-.5h10a.5.5 0 0 1 .5.5v12a.5.5 0 0 1 -.5.5zm-9.5-1h9v-11h-9z" fill="#212a41"/><path d="m29 46h10v12h-10z" fill="#b7c0d7"/><path d="m39 58.5h-10a.5.5 0 0 1 -.5-.5v-12a.5.5 0 0 1 .5-.5h10a.5.5 0 0 1 .5.5v12a.5.5 0 0 1 -.5.5zm-9.5-1h9v-11h-9z" fill="#212a41"/><path d="m39 49.5h-14a.5.5 0 0 1 0-1h14a.5.5 0 0 1 0 1z" fill="#212a41"/><path d="m46 46h10v12h-10z" fill="#99a2b9"/><path d="m56 58.5h-10a.5.5 0 0 1 -.5-.5v-12a.5.5 0 0 1 .5-.5h10a.5.5 0 0 1 .5.5v12a.5.5 0 0 1 -.5.5zm-9.5-1h9v-11h-9z" fill="#212a41"/><path d="m50 46h10v12h-10z" fill="#b7c0d7"/><path d="m60 58.5h-10a.5.5 0 0 1 -.5-.5v-12a.5.5 0 0 1 .5-.5h10a.5.5 0 0 1 .5.5v12a.5.5 0 0 1 -.5.5zm-9.5-1h9v-11h-9z" fill="#212a41"/><path d="m4 46h10v12h-10z" fill="#99a2b9"/><path d="m14 58.5h-10a.5.5 0 0 1 -.5-.5v-12a.5.5 0 0 1 .5-.5h10a.5.5 0 0 1 .5.5v12a.5.5 0 0 1 -.5.5zm-9.5-1h9v-11h-9z" fill="#212a41"/><path d="m8 46h10v12h-10z" fill="#b7c0d7"/><path d="m18 58.5h-10a.5.5 0 0 1 -.5-.5v-12a.5.5 0 0 1 .5-.5h10a.5.5 0 0 1 .5.5v12a.5.5 0 0 1 -.5.5zm-9.5-1h9v-11h-9z" fill="#212a41"/><path d="m10 16.5a.5.5 0 0 1 -.5-.5v-8a.5.5 0 0 1 1 0v8a.5.5 0 0 1 -.5.5z" fill="#d5def5"/><path d="m10 36.5a.5.5 0 0 1 -.5-.5v-8a.5.5 0 0 1 1 0v8a.5.5 0 0 1 -.5.5z" fill="#d5def5"/><path d="m10 56.5a.5.5 0 0 1 -.5-.5v-8a.5.5 0 0 1 1 0v8a.5.5 0 0 1 -.5.5z" fill="#d5def5"/><path d="m58 16.5a.5.5 0 0 1 -.5-.5v-8a.5.5 0 0 1 1 0v8a.5.5 0 0 1 -.5.5z" fill="#99a2b9"/><path d="m58 36.5a.5.5 0 0 1 -.5-.5v-8a.5.5 0 0 1 1 0v8a.5.5 0 0 1 -.5.5z" fill="#99a2b9"/><path d="m58 56.5a.5.5 0 0 1 -.5-.5v-8a.5.5 0 0 1 1 0v8a.5.5 0 0 1 -.5.5z" fill="#99a2b9"/><g fill="#212a41"><path d="m18 9.5h-14a.5.5 0 0 1 0-1h14a.5.5 0 0 1 0 1z"/><path d="m18 29.5h-14a.5.5 0 0 1 0-1h14a.5.5 0 0 1 0 1z"/><path d="m18 49.5h-14a.5.5 0 0 1 0-1h14a.5.5 0 0 1 0 1z"/><path d="m60 9.5h-14a.5.5 0 0 1 0-1h14a.5.5 0 0 1 0 1z"/><path d="m60 29.5h-14a.5.5 0 0 1 0-1h14a.5.5 0 0 1 0 1z"/><path d="m60 49.5h-14a.5.5 0 0 1 0-1h14a.5.5 0 0 1 0 1z"/></g></svg>