<svg width="13" height="13" viewBox="0 0 13 13" fill="none" xmlns="http://www.w3.org/2000/svg">
<path d="M12.9426 5.72511C12.8817 5.27458 12.779 4.84122 12.6375 4.43715C12.3972 3.75003 12.0499 3.11835 11.6061 2.55928C10.6743 1.38571 9.47215 0.595521 8.03333 0.210577C7.50932 0.0704201 6.9466 -0.00258651 6.40363 0.000146353C5.84564 -0.00336733 5.3248 0.0563653 4.81108 0.181687C4.35939 0.292173 3.92628 0.449117 3.52399 0.649007C2.55068 1.13233 1.75124 1.81867 1.14742 2.6889C0.513161 3.60323 0.145254 4.63548 0.0535738 5.75751C-0.00807337 6.51569 0.0737277 7.29104 0.297001 8.06249C0.458627 8.62039 0.705611 9.1693 1.03123 9.69362C1.04388 9.71392 1.04941 9.75375 1.04269 9.77288C0.899247 10.1625 0.751056 10.558 0.607213 10.9402C0.548727 11.096 0.490241 11.2517 0.432151 11.4075C0.368132 11.5781 0.304905 11.7491 0.241282 11.9197C0.17015 12.1106 0.099414 12.3019 0.0278875 12.4929C-0.0309935 12.6498 0.00378185 12.7923 0.128262 12.9051C0.198208 12.9684 0.277638 13 0.366157 13C0.424642 13 0.487475 12.9863 0.553469 12.9582C0.901222 12.8122 1.24898 12.6666 1.59673 12.521C2.12033 12.3016 2.64394 12.0821 3.16755 11.8623C3.20785 11.8456 3.23354 11.8471 3.27029 11.8682C3.43073 11.9607 3.58129 12.0427 3.73067 12.1185C4.37283 12.4441 5.07545 12.6588 5.81916 12.756C6.3242 12.8224 6.85334 12.827 7.39156 12.7704C7.98709 12.708 8.56365 12.5639 9.10583 12.3426C10.0436 11.9592 10.8497 11.3802 11.5014 10.6216C12.2708 9.72564 12.7517 8.67231 12.9315 7.49054C13.0188 6.91078 13.0228 6.31697 12.9426 5.72511ZM1.11225 11.7359C1.34856 11.1057 1.58527 10.4756 1.82198 9.84549C1.87414 9.70729 1.85754 9.57416 1.77377 9.4504C1.4924 9.03617 1.26952 8.59462 1.11185 8.13823C0.85064 7.38279 0.747105 6.61563 0.804405 5.85746C0.844712 5.32494 0.953781 4.81428 1.12884 4.33994C1.48687 3.36938 2.08675 2.55108 2.91187 1.9073C3.38608 1.53719 3.91996 1.24907 4.49849 1.04996C4.87114 0.921903 5.26315 0.83289 5.66426 0.784869C6.0373 0.740363 6.42773 0.732554 6.82409 0.761054C7.19358 0.787993 7.5769 0.856705 7.96338 0.965238C8.55258 1.13077 9.10464 1.38415 9.60454 1.71795C10.6245 2.3996 11.3737 3.31082 11.8309 4.42622C12.0226 4.89354 12.1503 5.39209 12.2099 5.90782C12.2649 6.381 12.2585 6.86198 12.1913 7.33828C12.0791 8.13042 11.808 8.86595 11.3856 9.52418C10.89 10.296 10.2289 10.9156 9.42039 11.365C8.95171 11.6254 8.43878 11.8174 7.8962 11.9354C7.23982 12.0779 6.56012 12.1036 5.87607 12.0115C5.06004 11.9018 4.27917 11.6176 3.556 11.1666C3.54415 11.1592 3.5319 11.1518 3.51965 11.1448C3.507 11.1374 3.49436 11.1299 3.48211 11.1221C3.41097 11.0772 3.33708 11.055 3.25883 11.055C3.19521 11.055 3.12842 11.0698 3.05848 11.0995C2.52894 11.324 1.98914 11.5492 1.46751 11.7671L1.03558 11.9475C1.06127 11.8737 1.08616 11.8046 1.11225 11.7359Z" fill="white"/>
<path d="M2.89804 5.34993C2.99999 5.76337 3.16478 6.17837 3.38884 6.58323C3.96145 7.6186 4.74982 8.4814 5.73302 9.14666C6.56683 9.71119 7.36746 10.029 8.18073 10.1176C8.28189 10.1285 8.38977 10.1375 8.50121 10.1375C8.67786 10.1375 8.86359 10.1153 9.04537 10.045C9.66539 9.80489 10.1258 9.36841 10.4139 8.74766C10.5672 8.41737 10.5 7.96138 10.0756 7.7283C9.89934 7.63148 9.72467 7.52373 9.55593 7.4191C9.44133 7.34843 9.32278 7.27503 9.20423 7.20554C9.04379 7.11145 8.87228 7.01307 8.6905 6.93226C8.43443 6.81865 8.19337 6.84051 7.99341 6.99511C7.90055 7.06695 7.82388 7.13683 7.75868 7.20867C7.63618 7.34414 7.51683 7.48664 7.40184 7.62406L7.35284 7.68262C7.32596 7.71464 7.3149 7.70956 7.29988 7.70214C7.26866 7.68731 7.23665 7.67364 7.20504 7.65959C7.12996 7.6264 7.05922 7.59556 6.99323 7.55574C6.54905 7.28675 6.13293 6.9182 5.72116 6.42902C5.50382 6.17096 5.36392 5.95701 5.2679 5.73565C5.25486 5.70559 5.23707 5.66421 5.23905 5.65445C5.24102 5.64469 5.28054 5.61072 5.29753 5.59627C5.35839 5.54435 5.42004 5.4936 5.48208 5.44284C5.57969 5.3632 5.68046 5.28043 5.7753 5.19376C5.91796 5.06337 6.07168 4.90525 6.09421 4.67413C6.11041 4.50703 6.06615 4.33447 5.96301 4.16074C5.73262 3.77267 5.49196 3.38187 5.2592 3.00396L5.16673 2.85365C4.97033 2.53429 4.54354 2.46168 4.24519 2.57646C3.80299 2.7459 3.43468 3.04378 3.11894 3.4865C2.87946 3.82225 2.77158 4.16269 2.78818 4.52694C2.78344 4.76509 2.81861 5.02667 2.89804 5.34993ZM4.48782 3.27724C4.50086 3.27256 4.51114 3.26983 4.51983 3.26983C4.53761 3.26983 4.54947 3.27998 4.5633 3.30262C4.6613 3.46269 4.7601 3.62236 4.85889 3.78204C4.99048 3.99482 5.12642 4.21462 5.25841 4.43168C5.29635 4.49415 5.33192 4.55271 5.32796 4.57614C5.32401 4.59917 5.2762 4.64094 5.21573 4.69365C5.11931 4.77759 5.01933 4.86152 4.92291 4.94273C4.8502 5.00402 4.77749 5.06493 4.70556 5.127C4.48071 5.31986 4.42104 5.56582 4.5226 5.87932C4.65182 6.27754 4.8992 6.60939 5.12405 6.88111C5.56783 7.41753 6.03493 7.83644 6.55182 8.16166C6.80117 8.3186 7.02366 8.41152 7.25286 8.45485C7.46783 8.49546 7.65554 8.43533 7.81124 8.27683C7.90055 8.18586 7.98511 8.08826 8.06692 7.99417C8.09774 7.95864 8.12856 7.92311 8.15939 7.88798C8.18152 7.86299 8.20286 7.83762 8.2238 7.81185C8.24791 7.78296 8.27162 7.75446 8.29651 7.72674C8.34512 7.67286 8.3874 7.62601 8.41072 7.62211C8.43324 7.61821 8.4854 7.64788 8.551 7.68653C8.79246 7.82981 9.03707 7.97738 9.27338 8.12027C9.41564 8.20616 9.55751 8.29205 9.70017 8.37755C9.73455 8.39824 9.73969 8.41425 9.72428 8.45212C9.6401 8.66177 9.49191 8.82808 9.37257 8.9495C9.19711 9.12753 8.97937 9.31649 8.69603 9.36841C8.57511 9.39066 8.43798 9.39301 8.26371 9.37622C7.83771 9.33523 7.41962 9.21264 6.98532 9.00221C5.65833 8.35842 4.64234 7.36834 3.96619 6.0593C3.74687 5.63492 3.60856 5.19962 3.55442 4.76509C3.5477 4.712 3.54454 4.65695 3.54138 4.60346C3.5398 4.5777 3.53822 4.55193 3.53664 4.52616V4.52538C3.51886 4.31925 3.58169 4.12443 3.73344 3.91283C3.9164 3.65789 4.14086 3.45722 4.40088 3.31589C4.42736 3.30223 4.45542 3.28935 4.48782 3.27724Z" fill="white"/>
</svg>
